<?xml version="1.0" standalone="no"?>
<!DOCTYPE svg PUBLIC "-//W3C//DTD SVG 20010904//EN"
 "http://www.w3.org/TR/2001/REC-SVG-20010904/DTD/svg10.dtd">
<svg version="1.0" xmlns="http://www.w3.org/2000/svg"
 width="800.000000pt" height="800.000000pt" viewBox="0 0 800.000000 800.000000"
 preserveAspectRatio="xMidYMid meet">
<metadata>
Created by potrace 1.14, written by Peter Selinger 2001-2017
</metadata>
<g transform="translate(0.000000,800.000000) scale(0.100000,-0.100000)"
fill="#000000" stroke="none">
<path d="M2846 7948 c-102 -222 -152 -331 -173 -378 -14 -30 -41 -89 -60 -130
-113 -242 -153 -332 -153 -340 0 -6 -4 -10 -10 -10 -5 0 -10 -7 -10 -15 0 -14
-41 -106 -102 -227 -16 -32 -26 -58 -21 -58 4 0 3 -4 -2 -8 -6 -4 -16 -19 -22
-34 -12 -26 -4 -47 91 -260 57 -128 116 -260 132 -293 15 -33 27 -66 27 -72 0
-7 4 -13 8 -13 4 0 10 -13 14 -30 4 -16 11 -30 16 -30 5 0 9 -6 9 -13 0 -12
53 -136 129 -302 16 -33 35 -76 43 -95 9 -19 28 -61 42 -93 14 -32 26 -59 26
-61 0 -3 15 -37 34 -78 18 -40 36 -81 39 -90 9 -26 23 -22 36 10 6 15 15 34
20 42 6 8 150 297 322 643 280 563 339 670 339 613 0 -8 -14 -43 -32 -77 -18
-35 -33 -66 -33 -69 -1 -3 -16 -36 -34 -75 -18 -38 -40 -86 -49 -105 -9 -19
-20 -38 -25 -41 -5 -3 -9 -10 -9 -15 0 -10 -21 -59 -79 -181 -22 -45 -39 -87
-39 -92 0 -6 -5 -11 -10 -11 -6 0 -9 -3 -8 -7 1 -5 -18 -48 -41 -98 -24 -49
-52 -110 -63 -135 -12 -25 -38 -80 -59 -122 -20 -43 -35 -78 -33 -78 3 0 -3
-12 -13 -27 -11 -16 -28 -48 -39 -73 -10 -25 -35 -79 -55 -120 -20 -41 -34
-79 -31 -85 4 -5 7 -12 7 -15 1 -3 22 -48 47 -100 108 -226 173 -360 208 -435
37 -78 88 -185 198 -415 123 -257 162 -342 162 -350 0 -4 7 -13 15 -20 9 -7
13 -15 11 -18 -3 -2 8 -28 23 -57 16 -29 31 -65 35 -80 6 -22 9 -25 21 -15 8
7 15 18 15 25 0 7 7 18 15 25 8 6 14 15 13 18 -1 4 43 97 97 207 54 110 99
202 99 205 1 3 8 16 16 30 29 50 59 120 52 120 -4 0 -2 4 4 8 6 4 39 66 74
137 34 72 107 220 161 331 54 111 99 206 99 212 0 6 3 12 8 14 4 2 23 37 42
78 19 41 40 82 46 90 7 8 13 19 13 23 0 4 37 83 82 175 45 92 100 205 122 252
23 47 45 88 50 91 5 3 8 8 7 10 -3 8 23 64 184 392 91 186 166 343 166 348 0
5 5 9 10 9 6 0 9 3 8 8 -1 4 11 33 26 65 25 49 32 57 56 57 l29 0 -97 -192
c-52 -106 -96 -195 -97 -198 0 -3 -54 -113 -120 -245 -66 -132 -118 -243 -117
-247 1 -5 -2 -8 -7 -8 -5 0 -12 -10 -16 -22 -4 -13 -8 -25 -9 -28 -1 -3 -15
-30 -31 -60 -16 -30 -29 -57 -30 -60 -1 -3 -97 -198 -214 -435 -365 -735 -531
-1075 -529 -1078 2 -2 -3 -11 -10 -19 -10 -12 -111 -209 -117 -228 -8 -25 -60
-126 -67 -128 -4 -2 -8 -10 -8 -17 0 -7 -10 -32 -22 -55 l-23 -42 -32 69 c-17
37 -55 118 -84 178 -29 61 -53 112 -54 115 0 3 -13 32 -29 65 -120 251 -148
312 -150 323 -1 7 -8 18 -14 24 -7 7 -12 16 -12 21 0 10 -31 80 -39 87 -4 3
-7 14 -9 24 -2 10 -10 25 -18 33 -8 8 -14 19 -14 25 0 10 -9 30 -105 233 -105
221 -185 391 -237 505 -17 36 -49 106 -73 155 -46 97 -106 224 -150 320 -15
33 -52 112 -82 175 -30 63 -71 151 -90 195 -20 44 -40 82 -44 83 -5 2 -9 11
-9 20 0 10 -9 32 -20 50 -11 18 -20 39 -20 47 0 8 -4 15 -10 15 -5 0 -10 5
-10 12 0 6 -11 34 -24 62 -13 28 -41 87 -61 131 -86 185 -118 250 -126 255 -4
3 -365 5 -801 5 -748 0 -793 -1 -790 -17 2 -10 20 -55 41 -100 48 -105 55
-121 53 -130 -1 -5 2 -8 7 -8 5 0 14 -15 21 -32 12 -30 26 -61 111 -245 80
-172 93 -202 117 -253 14 -30 26 -57 27 -60 0 -3 18 -41 39 -85 21 -44 49
-103 62 -132 12 -28 42 -91 65 -140 44 -93 81 -175 84 -183 1 -3 22 -50 48
-104 26 -54 47 -100 47 -102 0 -1 21 -46 46 -101 238 -510 327 -705 328 -715
1 -4 7 -13 14 -19 6 -7 12 -17 12 -22 0 -4 12 -34 26 -65 15 -31 38 -82 51
-112 14 -30 43 -93 65 -140 22 -47 51 -107 63 -135 78 -166 110 -236 132 -285
13 -30 35 -77 48 -105 68 -145 122 -260 162 -350 48 -107 91 -198 144 -310 18
-38 34 -72 35 -75 1 -7 40 -90 100 -218 30 -63 54 -115 54 -117 0 -3 22 -51
48 -107 45 -94 108 -231 185 -398 16 -36 46 -101 67 -145 118 -255 143 -309
145 -315 1 -3 17 -36 35 -75 17 -38 45 -98 61 -132 16 -35 43 -93 60 -130 77
-164 92 -198 94 -203 1 -3 16 -35 33 -73 18 -37 32 -72 32 -77 0 -6 5 -10 10
-10 6 0 10 -6 10 -14 0 -8 27 -72 61 -143 33 -70 70 -148 81 -173 11 -25 34
-73 49 -107 16 -35 42 -91 58 -125 15 -35 38 -84 50 -110 12 -27 24 -48 26
-48 5 0 32 54 145 295 93 199 113 241 121 255 5 8 13 25 19 37 11 27 66 144
128 273 25 52 46 97 47 100 0 3 29 64 64 135 34 72 81 171 104 220 23 50 46
93 52 97 5 4 6 8 1 8 -4 0 -1 11 8 25 9 13 16 31 16 40 0 8 5 15 10 15 6 0 10
4 10 10 0 5 21 53 47 107 25 54 47 100 48 103 2 7 67 143 113 238 22 45 38 82
36 82 -3 0 4 13 15 29 12 16 21 32 21 36 0 6 32 75 133 285 30 63 76 160 102
215 26 55 61 129 78 165 17 36 31 67 32 70 0 3 15 33 33 68 17 34 28 62 24 62
-4 0 -2 4 3 8 6 4 21 32 35 62 14 30 29 58 35 62 5 4 7 8 3 8 -7 0 28 77 63
143 39 73 128 266 135 292 3 14 9 25 13 25 3 0 12 15 20 33 24 56 77 168 132
282 29 61 54 112 54 115 1 3 22 49 48 103 26 53 67 139 91 190 24 50 67 140
95 199 28 60 51 112 51 118 0 5 5 10 10 10 6 0 10 6 10 13 0 8 6 27 14 43 22
45 139 289 186 389 24 50 63 133 88 185 25 52 46 97 47 100 0 3 22 48 47 100
25 52 62 129 81 170 19 41 60 129 92 195 63 131 99 208 227 480 47 99 97 204
112 234 14 30 26 61 26 68 0 7 3 13 8 13 4 0 13 15 21 33 8 17 34 75 59 127
24 52 57 122 73 155 15 33 28 64 28 69 0 5 3 12 8 15 7 5 34 55 38 71 1 3 20
44 43 93 23 48 61 126 83 175 23 48 64 134 91 192 28 58 63 132 78 165 15 33
42 89 60 125 17 36 36 75 41 88 l9 22 -2285 0 -2284 0 -25 -52z"/>
</g>
</svg>
